<svg width="134" height="256" viewBox="0 0 134 256" fill="none" xmlns="http://www.w3.org/2000/svg">
<path d="M122.029 185.902C133.681 136.693 127.879 99.8045 127.879 99.8045C121.694 55.1698 80.0995 -15.0325 29.2766 4.73519C10.3869 12.0824 2.2998 31.5796 8.51779 52.4296C13.6025 69.4796 44.9439 92.5302 60.3707 112.685C68.6379 123.486 74.263 132.884 77.5437 143.4C81.2069 155.142 80.5591 152.583 83.8779 167.73C89.696 194.286 82.2172 254.454 82.2172 254.454C82.2172 254.454 115.14 214.995 122.029 185.902Z" fill="url(#paint0_linear_207_8)"/>
<path d="M46.5925 43.8705C45.0499 39.8209 45.2388 36.8468 47.8669 33.9268C50.4949 31.0068 53.7551 30.1097 58.6308 30.495C64.9879 30.9974 67.7502 34.2412 73.2935 38.9341C78.8368 43.6269 86.9326 56.2564 88.2014 65.0002C88.7584 68.8385 87.4729 72.0244 83.4783 73.6591C77.1387 76.2534 63.3802 58.5331 58.674 54.3247C54.0383 50.1793 48.5437 48.9929 46.5925 43.8705Z" fill="#D9D9D9" fill-opacity="0.26"/>
<defs>
<linearGradient id="paint0_linear_207_8" x1="70.4812" y1="67.3306" x2="108.326" y2="184.364" gradientUnits="userSpaceOnUse">
<stop offset="0.0452216" stop-color="#289758"/>
<stop offset="1" stop-color="#9CE074"/>
</linearGradient>
</defs>
</svg>
