<svg width="156" height="263" viewBox="0 0 156 263" fill="none" xmlns="http://www.w3.org/2000/svg">
<path d="M126.033 193.381C133.743 176.078 143.622 155.943 139.691 109.263C135.761 62.5828 103.257 -8.0369 51.4709 6.73266C32.2232 12.2221 22.4812 30.6501 26.6804 51.7216C30.1143 68.9528 58.8138 94.495 72.1313 115.729C79.2682 127.108 82.6056 134.421 86.1961 147.506C88.7625 156.858 89.2181 162.364 90.19 172.01C93.545 205.309 80.5937 257.128 80.5937 257.128C80.5937 257.128 111.566 225.848 126.033 193.381Z" fill="url(#paint0_linear_209_18)"/>
<path d="M59.8012 46.9496C58.6564 42.8262 59.1152 39.9193 61.9674 37.2895C64.8195 34.6598 68.1074 34.077 72.866 34.9036C79.0705 35.9814 81.4886 39.4245 86.5081 44.5477C91.5275 49.6709 98.328 62.8322 98.7726 71.5459C98.9678 75.371 97.4113 78.3855 93.3335 79.626C86.8619 81.5947 74.9612 62.9079 70.7203 58.3379C66.5429 53.8364 61.2494 52.1652 59.8012 46.9496Z" fill="#D9D9D9" fill-opacity="0.26"/>
<defs>
<linearGradient id="paint0_linear_209_18" x1="86.2375" y1="72.0625" x2="112.702" y2="190.609" gradientUnits="userSpaceOnUse">
<stop offset="0.0452216" stop-color="#289758"/>
<stop offset="1" stop-color="#9CE074"/>
</linearGradient>
</defs>
</svg>
